HIERARCHY
ROOT SpineBase
{
  OFFSET 0.000000 0.000000 0.000000
  CHANNELS 6 Xposition Yposition Zposition Zrotation Xrotation Yrotation
  JOINT SpineMid
  {
    OFFSET -0.000000 29.614836 0.000000
    CHANNELS 3 Zrotation Xrotation Yrotation
    JOINT SpineShoulder
    {
      OFFSET 0.124072 22.084006 -0.748235
      CHANNELS 3 Zrotation Xrotation Yrotation
      JOINT Neck
      {
        OFFSET 0.037660 7.304252 -0.596017
        CHANNELS 3 Zrotation Xrotation Yrotation
        JOINT Head
        {
          OFFSET -2.522045 13.969204 -1.610471
          CHANNELS 3 Zrotation Xrotation Yrotation
          End Site
          {
            OFFSET 0 0 0
          }
        }
      }
      JOINT ShoulderLeft
      {
        OFFSET -16.086952 -3.723552 3.203574
        CHANNELS 3 Zrotation Xrotation Yrotation
        JOINT ElbowLeft
        {
          OFFSET -4.622766 -24.236463 1.504000
          CHANNELS 3 Zrotation Xrotation Yrotation
          JOINT WristLeft
          {
            OFFSET -2.045042 -20.929348 -6.493318
            CHANNELS 3 Zrotation Xrotation Yrotation
            JOINT HandLeft
            {
              OFFSET 0.600998 -4.158228 -0.912423
              CHANNELS 3 Zrotation Xrotation Yrotation
              JOINT HandTipLeft
              {
                OFFSET -0.328376 -5.588887 -1.447811
                CHANNELS 3 Zrotation Xrotation Yrotation
                End Site
                {
                  OFFSET 0 0 0
                }
              }
              JOINT ThumbLeft
              {
                OFFSET 3.663337 -0.185524 -1.083066
                CHANNELS 3 Zrotation Xrotation Yrotation
                End Site
                {
                  OFFSET 0 0 0
                }
              }
            }
          }
        }
      }
      JOINT ShoulderRight
      {
        OFFSET 15.291861 -2.385972 -5.460754
        CHANNELS 3 Zrotation Xrotation Yrotation
        JOINT ElbowRight
        {
          OFFSET 4.205145 -23.794026 -0.865585
          CHANNELS 3 Zrotation Xrotation Yrotation
          JOINT WristRight
          {
            OFFSET -5.012073 -22.186181 -7.397267
            CHANNELS 3 Zrotation Xrotation Yrotation
            JOINT HandRight
            {
              OFFSET -1.069128 -3.953929 0.418246
              CHANNELS 3 Zrotation Xrotation Yrotation
              JOINT HandTipRight
              {
                OFFSET -0.946655 -6.207832 -0.880672
                CHANNELS 3 Zrotation Xrotation Yrotation
                End Site
                {
                  OFFSET 0 0 0
                }
              }
              JOINT ThumbRight
              {
                OFFSET -2.821112 2.239347 -1.323136
                CHANNELS 3 Zrotation Xrotation Yrotation
                End Site
                {
                  OFFSET 0 0 0
                }
              }
            }
          }
        }
      }
    }
  }
  JOINT HipLeft
  {
    OFFSET -7.155402 0.791351 -1.691671
    CHANNELS 3 Zrotation Xrotation Yrotation
    JOINT KneeLeft
    {
      OFFSET 2.185927 -26.322408 4.918643
      CHANNELS 3 Zrotation Xrotation Yrotation
      JOINT AnkleLeft
      {
        OFFSET 2.416152 -34.110837 6.415308
        CHANNELS 3 Zrotation Xrotation Yrotation
        JOINT FootLeft
        {
          OFFSET -3.665506 -3.078741 -13.904812
          CHANNELS 3 Zrotation Xrotation Yrotation
          End Site
          {
            OFFSET 0 0 0
          }
        }
      }
    }
  }
  JOINT HipRight
  {
    OFFSET 7.908262 0.753602 -5.007200
    CHANNELS 3 Zrotation Xrotation Yrotation
    JOINT KneeRight
    {
      OFFSET 5.100063 -28.730369 0.916990
      CHANNELS 3 Zrotation Xrotation Yrotation
      JOINT AnkleRight
      {
        OFFSET -1.543455 -33.639103 7.485494
        CHANNELS 3 Zrotation Xrotation Yrotation
        JOINT FootRight
        {
          OFFSET -2.888238 -7.786348 -4.340481
          CHANNELS 3 Zrotation Xrotation Yrotation
          End Site
          {
            OFFSET 0 0 0
          }
        }
      }
    }
  }
}
MOTION
Frames: 10
Frame Time: 0.033333
-38.548820 70.431342 360.883348 -10.303249 -3.624706 30.327723 0.352643 -0.374896 -30.993014 0.085354 0.292055 -0.441112 16.775266 12.213132 1.851406 0.000000 0.000000 0.000000 7.157122 0.209818 1.035711 -2.519663 4.505640 1.251211 19.764626 -14.619334 -4.564949 -0.117835 11.801752 -0.413246 0.000000 0.000000 0.000000 0.000000 0.000000 0.000000 72.690833 63.376946 -30.425724 157.764777 75.114648 91.863457 -60.190948 -31.871258 -164.536968 -40.973895 -26.553729 54.531559 0.000000 0.000000 0.000000 0.000000 0.000000 0.000000 7.949936 2.647638 -31.121870 7.082520 0.677221 1.494984 4.051096 -26.692851 1.857263 0.000000 0.000000 0.000000 9.888346 -1.071630 -30.437048 6.858562 -1.462493 1.355148 -19.977853 -9.971799 9.883635 0.000000 0.000000 0.000000
-38.499678 70.517801 360.584438 -9.922092 -3.521257 30.697698 0.292147 -0.407367 -31.333325 0.097306 0.291215 -0.424924 17.394210 12.785022 1.890339 0.000000 0.000000 0.000000 7.140909 0.209136 1.021670 -2.495801 4.474837 1.108518 17.351097 -20.986595 -4.592388 -1.249942 19.454917 0.348360 0.000000 0.000000 0.000000 0.000000 0.000000 0.000000 73.037064 61.387008 -29.969166 158.623742 71.578521 87.223870 -42.882029 -38.245410 -143.532462 -35.880476 -30.620691 23.931189 0.000000 0.000000 0.000000 0.000000 0.000000 0.000000 7.342216 2.518983 -31.527995 7.031963 0.661200 1.469248 7.073071 -35.685653 -1.148224 0.000000 0.000000 0.000000 9.576592 -1.276974 -30.820628 6.598950 -1.545932 1.368450 -20.124033 -9.078184 9.885552 0.000000 0.000000 0.000000
-38.428387 70.604992 360.290633 -9.521178 -3.423993 30.859963 0.237454 -0.434527 -31.465095 0.108533 0.288438 -0.407914 17.896632 13.467862 1.933211 0.000000 0.000000 0.000000 6.931235 -0.263855 1.082355 -2.596856 4.535349 1.050518 15.357853 -18.753038 -4.549396 0.469350 20.370574 -0.700119 0.000000 0.000000 0.000000 0.000000 0.000000 0.000000 73.185104 59.698244 -29.520176 122.485933 78.353868 136.923163 -34.349244 -25.910753 -127.616105 -27.004150 -29.977864 3.557039 0.000000 0.000000 0.000000 0.000000 0.000000 0.000000 6.679075 2.385859 -31.735517 7.147361 0.794047 1.482051 7.226018 -36.113233 -1.562769 0.000000 0.000000 0.000000 9.143672 -1.374985 -31.009675 6.488137 -1.573833 1.389264 -20.219166 -8.392324 9.883680 0.000000 0.000000 0.000000
-38.365703 70.681836 360.038023 -9.155417 -3.339816 31.033930 0.218063 -0.442793 -31.609565 0.106571 0.281774 -0.392403 18.387265 14.079212 1.967843 0.000000 0.000000 0.000000 6.761445 -0.577191 1.116467 -2.768253 4.182107 1.049120 13.943973 -14.090525 -4.368080 2.105491 18.065335 -1.578244 0.000000 0.000000 0.000000 0.000000 0.000000 0.000000 73.397984 58.611323 -29.357699 46.615976 68.813941 -124.284903 -29.964250 -6.576640 -113.971475 -17.744006 -25.857190 5.065004 0.000000 0.000000 0.000000 0.000000 0.000000 0.000000 6.096233 2.256161 -31.947330 7.184144 0.881481 1.477728 4.874475 -27.739748 2.101548 0.000000 0.000000 0.000000 8.689206 -1.478644 -31.219868 6.459095 -1.527510 1.417559 -19.989201 -7.370944 9.583722 0.000000 0.000000 0.000000
-38.289028 70.723444 359.810045 -8.823407 -3.206582 30.989548 0.208936 -0.470070 -31.535390 0.124728 0.293138 -0.375380 18.720792 14.617155 2.013350 0.000000 0.000000 0.000000 6.597921 -0.825145 1.133315 -2.806521 4.210929 0.977906 13.201582 -9.844104 -3.966567 1.278585 12.858273 -0.926987 0.000000 0.000000 0.000000 0.000000 0.000000 0.000000 73.649430 58.155635 -29.480826 27.960870 51.923076 -89.201210 -23.346965 11.186252 -96.921373 -23.240829 -24.498626 -5.607755 0.000000 0.000000 0.000000 0.000000 0.000000 0.000000 5.584285 2.106685 -31.922466 7.209008 0.922008 1.470804 3.377300 -22.993368 3.289081 0.000000 0.000000 0.000000 8.165985 -1.583338 -31.215528 6.566645 -1.401936 1.457671 -19.600721 -6.719394 9.237473 0.000000 0.000000 0.000000
-38.217248 70.689483 359.664432 -8.545569 -3.062218 30.608804 0.227465 -0.500606 -31.127201 0.146956 0.318976 -0.358624 18.890611 14.662863 2.033023 0.000000 0.000000 0.000000 6.340520 -1.215306 1.167161 -1.655501 4.877291 0.450128 -1.369348 -8.623952 -1.527274 12.920707 11.765730 -3.933750 0.000000 0.000000 0.000000 0.000000 0.000000 0.000000 74.547314 58.623213 -30.438476 19.248619 35.985752 -69.063686 -33.350260 29.488492 -112.043460 -10.242294 -8.261897 57.631083 0.000000 0.000000 0.000000 0.000000 0.000000 0.000000 5.227901 2.011300 -31.536641 7.129548 0.800134 1.440644 1.786119 -17.885562 4.082058 0.000000 0.000000 0.000000 7.780166 -1.528120 -30.840788 6.619636 -1.433540 1.469547 -19.464924 -6.501447 9.164993 0.000000 0.000000 0.000000
-38.177772 70.644244 359.552478 -8.334142 -2.917267 30.731366 0.250644 -0.465367 -31.223103 0.139876 0.364766 -0.346291 19.254327 14.263896 2.048742 0.000000 0.000000 0.000000 6.189769 -1.693140 1.211640 -1.635301 5.484315 0.363202 6.152116 -5.950721 -2.100060 5.336188 8.639693 -1.877440 0.000000 0.000000 0.000000 0.000000 0.000000 0.000000 75.299915 58.986625 -31.122992 15.549511 30.542256 -63.296172 -42.763730 39.579654 -126.545891 -7.866430 -3.957435 78.026076 0.000000 0.000000 0.000000 0.000000 0.000000 0.000000 5.076275 1.914597 -31.626392 7.134880 0.777344 1.439372 1.463879 -17.535309 5.096587 0.000000 0.000000 0.000000 7.346992 -1.773933 -31.006503 6.627731 -1.224735 1.488901 -19.356621 -6.516355 9.175136 0.000000 0.000000 0.000000
-38.174109 70.578657 359.505181 -8.168955 -2.910675 31.166304 0.307638 -0.465068 -31.644507 0.127952 0.385179 -0.336000 19.474388 13.997777 2.023184 0.000000 0.000000 0.000000 6.077267 -1.798119 1.215189 -1.219915 5.760502 0.138397 4.780844 -2.678495 -1.314668 5.003935 1.433464 -1.319864 0.000000 0.000000 0.000000 0.000000 0.000000 0.000000 76.249456 59.480686 -32.126764 15.369948 30.847861 -63.985806 -49.407111 41.390623 -135.735594 -13.965149 1.897364 106.997655 0.000000 0.000000 0.000000 0.000000 0.000000 0.000000 5.265889 2.015089 -31.993708 7.081704 0.661308 1.433251 -0.135469 -14.262304 7.501699 0.000000 0.000000 0.000000 7.071563 -1.969485 -31.489944 6.552233 -1.021629 1.497050 -19.112947 -6.674628 9.168287 0.000000 0.000000 0.000000
-38.152019 70.479743 359.472023 -8.017901 -2.973382 31.621361 0.323415 -0.473368 -32.093991 0.109115 0.371428 -0.330245 19.564508 13.790041 1.965836 0.000000 0.000000 0.000000 6.165099 -1.463850 1.168939 -0.645037 5.931589 -0.184883 -4.862599 -7.680240 -0.379801 12.300398 2.526117 -2.621201 0.000000 0.000000 0.000000 0.000000 0.000000 0.000000 76.875753 59.925407 -32.943086 17.531330 39.466038 -72.739092 -49.556294 35.254775 -143.434439 -5.632515 -4.486168 78.393487 0.000000 0.000000 0.000000 0.000000 0.000000 0.000000 5.430909 2.165874 -32.402692 7.075844 0.556639 1.435459 0.599767 -16.922862 7.413587 0.000000 0.000000 0.000000 6.842857 -2.084820 -31.996415 6.463703 -0.842181 1.498504 -19.070743 -6.927064 9.305864 0.000000 0.000000 0.000000
-38.109017 70.382005 359.418291 -7.869304 -3.035459 32.101337 0.300981 -0.496518 -32.570719 0.098657 0.345445 -0.325955 19.511555 13.524314 1.895608 0.000000 0.000000 0.000000 6.245044 -1.120722 1.125068 0.202909 6.133316 -0.610516 -19.036822 -20.465450 -2.491505 24.471057 9.510208 -6.644975 0.000000 0.000000 0.000000 0.000000 0.000000 0.000000 78.375888 60.102624 -34.248571 21.545930 53.734599 -89.693356 -41.124348 20.973941 -137.538341 -1.710513 -25.187173 11.002108 0.000000 0.000000 0.000000 0.000000 0.000000 0.000000 5.519517 2.285214 -32.853334 7.007509 0.472705 1.423313 2.838472 -23.104027 5.099633 0.000000 0.000000 0.000000 6.600806 -2.220110 -32.532262 6.355605 -0.615654 1.495831 -18.633552 -6.850336 9.151258 0.000000 0.000000 0.000000
